@startuml
skinparam backgroundColor #F0F8FF

class Broker << (K,orchid) >>
class KafkaManager << (M,orange) >>
class KafkaMonitor << (M,orange) >>
class Prometheus << (M,orange) >>

Broker --> KafkaManager : manage
Broker --> KafkaMonitor : monitor
Broker --> Prometheus : collect metrics

note top of Broker : 使用工具进行Kafka集群的管理和监控
@enduml
